<svg xmlns="http://www.w3.org/2000/svg" style="display:none">
  <!-- Reference sprite. The live site injects icons via js/config.js (ICONS map).
       This file documents the icon set and can be used for static fallbacks. -->
  <symbol id="i-phone" viewBox="0 0 24 24"><path d="M22 16.9v3a2 2 0 0 1-2.2 2 19.8 19.8 0 0 1-8.6-3 19.5 19.5 0 0 1-6-6 19.8 19.8 0 0 1-3-8.6A2 2 0 0 1 4.1 2h3a2 2 0 0 1 2 1.7c.1 1 .4 1.9.7 2.8a2 2 0 0 1-.5 2.1L8.1 9.9a16 16 0 0 0 6 6l1.3-1.3a2 2 0 0 1 2.1-.4c.9.3 1.8.5 2.8.6a2 2 0 0 1 1.7 2.1z" fill="none" stroke="currentColor" stroke-width="1.8"/></symbol>
  <symbol id="i-wrench" viewBox="0 0 24 24"><path d="M14.7 6.3a4 4 0 0 0-5.4 5.2L3 17.8 6.2 21l6.3-6.3a4 4 0 0 0 5.2-5.4l-2.7 2.7-2.6-.4-.4-2.6z" fill="none" stroke="currentColor" stroke-width="1.8"/></symbol>
</svg>
